<?xml version="1.0" encoding="iso-8859-1"?>
<!-- Generator: Adobe Illustrator 19.0.0, SVG Export Plug-In . SVG Version: 6.00 Build 0)  -->
<svg version="1.1" id="Layer_1" xmlns="http://www.w3.org/2000/svg" xmlns:xlink="http://www.w3.org/1999/xlink" x="0px" y="0px"
	 viewBox="0 0 512 512" style="enable-background:new 0 0 512 512;" xml:space="preserve">
<g>
	<g>
		<path d="M437.02,74.98C388.667,26.628,324.38,0,256,0S123.333,26.628,74.98,74.98C26.628,123.333,0,187.62,0,256
			s26.628,132.667,74.98,181.02C123.333,485.372,187.62,512,256,512s132.667-26.628,181.02-74.98
			C485.372,388.667,512,324.38,512,256S485.372,123.333,437.02,74.98z M256,491.602c-129.911,0-235.602-105.69-235.602-235.602
			S126.089,20.398,256,20.398S491.602,126.089,491.602,256S385.911,491.602,256,491.602z"/>
	</g>
</g>
<g>
	<g>
		<path d="M256,55.076C145.21,55.076,55.076,145.21,55.076,256S145.21,456.924,256,456.924S456.924,366.79,456.924,256
			S366.79,55.076,256,55.076z M256,436.526c-99.542,0-180.526-80.984-180.526-180.526S156.458,75.474,256,75.474
			S436.526,156.458,436.526,256S355.542,436.526,256,436.526z"/>
	</g>
</g>
<g>
	<g>
		<path d="M256,101.992c-23.057,0-41.817,18.759-41.817,41.817s18.759,41.817,41.817,41.817s41.817-18.759,41.817-41.817
			C297.817,120.751,279.057,101.992,256,101.992z M256,165.227c-11.811,0-21.418-9.608-21.418-21.418S244.189,122.39,256,122.39
			s21.418,9.608,21.418,21.418S267.811,165.227,256,165.227z"/>
	</g>
</g>
<g>
	<g>
		<path d="M273.849,200.504h-35.697c-13.216,0-23.968,10.752-23.968,23.968V382.98c0,13.216,10.752,23.968,23.968,23.968h35.697
			c13.216,0,23.968-10.752,23.968-23.968V224.472C297.817,211.256,287.065,200.504,273.849,200.504z M277.418,382.98
			c0,1.968-1.601,3.57-3.57,3.57h-35.697c-1.968,0-3.57-1.601-3.57-3.57V224.472c0-1.968,1.601-3.57,3.57-3.57h35.697
			c1.968,0,3.57,1.601,3.57,3.57V382.98z"/>
	</g>
</g>
<g>
	<g>
		<path d="M407.964,178.973c-2.548-5.023-8.685-7.031-13.71-4.484c-5.023,2.548-7.031,8.686-4.484,13.71
			c29.396,57.968,18.242,127.82-27.755,173.816c-3.983,3.984-3.983,10.442,0,14.425c1.991,1.992,4.602,2.987,7.212,2.987
			s5.22-0.995,7.213-2.987c25.904-25.905,42.488-58.689,47.958-94.808C429.758,246.242,424.075,210.743,407.964,178.973z"/>
	</g>
</g>
<g>
	<g>
		<path d="M382.627,142.081c-1.997-2.216-4.08-4.41-6.19-6.52c-3.983-3.983-10.441-3.982-14.424,0.001
			c-3.983,3.984-3.983,10.441,0.001,14.424c1.861,1.861,3.698,3.795,5.459,5.749c2.014,2.235,4.792,3.372,7.581,3.372
			c2.432,0,4.874-0.866,6.823-2.621C386.062,152.715,386.398,146.266,382.627,142.081z"/>
	</g>
</g>
<g>
</g>
<g>
</g>
<g>
</g>
<g>
</g>
<g>
</g>
<g>
</g>
<g>
</g>
<g>
</g>
<g>
</g>
<g>
</g>
<g>
</g>
<g>
</g>
<g>
</g>
<g>
</g>
<g>
</g>
</svg>
